<svg version="1.1" xmlns="http://www.w3.org/2000/svg" viewBox="0 0 189.10057260356848 189" width="189.10057260356848" height="189">
  <!-- svg-source:excalidraw -->
  
  <defs>
    <style>
      @font-face {
        font-family: "Virgil";
        src: url("https://excalidraw.com/Virgil.woff2");
      }
      @font-face {
        font-family: "Cascadia";
        src: url("https://excalidraw.com/Cascadia.woff2");
      }
    </style>
  </defs>
  <rect x="0" y="0" width="189.10057260356848" height="189" fill="#ffffff"></rect><g stroke-linecap="round" transform="translate(10 10) rotate(0 58.5 84.5)"><path d="M1.34 0.27 C35.09 -1.03, 68.09 0.14, 115.64 -0.88 M-0.91 0.54 C29.94 -1.17, 61.43 -0.97, 117.41 -0.99 M117.32 1.16 C113.84 59.95, 113.95 119.25, 115.66 167.65 M117.14 -0.81 C115.45 37.61, 116.47 74.23, 116.29 168.86 M116.56 167.38 C77.02 169.49, 36.91 169.15, -1.61 168.98 M116.29 168.35 C85.67 169.72, 53.35 169.51, -0.73 168.29 M-1.62 167.89 C1.41 110.39, -0.86 49.79, -1.41 0.8 M-0.37 169.36 C0.64 112.87, 0.78 55.72, 0.81 0.93" stroke="#000000" stroke-width="1" fill="none"></path></g><g stroke-linecap="round"><g transform="translate(127 65) rotate(0 25.73525110812858 37.09362475759089)"><path d="M0.54 1 C4.54 1.1, 20.37 -13.58, 23.47 -0.4 C26.56 12.78, 14.36 78.22, 19.13 80.08 C23.9 81.94, 46.62 22.22, 52.1 10.74 M-0.63 0.47 C3.21 0.84, 18.54 -12.05, 22.24 0.92 C25.94 13.89, 16.63 76.51, 21.57 78.31 C26.51 80.1, 46.52 22.8, 51.88 11.71" stroke="#000000" stroke-width="1" fill="none"></path></g></g><g stroke-linecap="round"><g transform="translate(80 99) rotate(0 -13.955681502800473 30.189417523518188)"><path d="M0.25 -0.61 C-5.25 4.85, -35.07 30.43, -33.64 33.31 C-32.21 36.18, 8.88 12.04, 8.84 16.65 C8.79 21.26, -26.5 53.58, -33.91 60.99 M-1.08 1.69 C-6.13 6.72, -32.87 29.18, -31.27 31.34 C-29.67 33.5, 9.42 10.05, 8.51 14.65 C7.6 19.25, -29.71 51.66, -36.75 58.95" stroke="#000000" stroke-width="1" fill="none"></path></g></g><g stroke-linecap="round" transform="translate(32 28) rotate(0 34 26)"><path d="M-1.39 1 C23.86 0.22, 45.55 -2.24, 67.4 -0.88 M0.36 -0.19 C25.38 -0.29, 49.79 1.26, 68.6 -0.05 M68.12 1.3 C66.55 17.75, 67.96 36.22, 67.13 52.34 M68.54 0.77 C68.66 13.79, 68.46 28.12, 67.04 52.89 M68.53 51.63 C51.23 52.87, 36.61 52.91, -1.69 51.02 M68.41 51.01 C44.22 51.2, 21.86 51.92, 0.22 52.93 M-0.63 51.48 C-1.64 36.43, 1.06 19.55, 1.17 0.26 M0.56 51.23 C1.16 37.68, -0.68 25.98, 0 0.58" stroke="#000000" stroke-width="1" fill="none"></path></g><g stroke-linecap="round" transform="translate(40 34) rotate(0 24.5 6)"><path d="M0.48 0.97 C12.09 -1.21, 28.38 -2.1, 48.78 0.82 M0.13 -0.01 C10.06 1.29, 19.89 0.31, 49.61 -0.32 M49.62 0.51 C49.6 3.44, 48.41 6.02, 49.98 12.67 M48.45 0.57 C49.11 3.03, 49.13 5.59, 49.46 12.42 M50.65 11.99 C35.21 13, 23.04 12.54, -1 13.91 M48.1 12.42 C31.51 11.91, 13.33 11.65, -0.29 11.02 M-0.07 11.14 C-0.49 8.11, 0.17 3.71, 1.01 0.91 M0.53 11.79 C-0.13 8.78, 0.23 5.41, -0.21 -0.34" stroke="#000000" stroke-width="1" fill="none"></path></g><g stroke-linecap="round" transform="translate(42 55) rotate(0 24 9)"><path d="M0.78 1.53 C15.77 -0.33, 29.62 1.61, 49.65 -0.01 M0.07 -0.5 C15.69 0.25, 30.18 -1.37, 47.1 0.42 M48.17 -0.52 C46.3 6.59, 48.75 12.74, 47.9 16.71 M47.18 0.75 C48.64 4.69, 47.63 10.09, 48.79 17.69 M49.69 17.31 C33.86 18.82, 20.53 19, -1.95 18.62 M48.66 17.56 C33.62 18.87, 20.97 19.13, 0.74 18.18 M0.11 17.07 C0.88 13.25, 0.42 8.99, 0.57 -0.35 M-0.7 17.97 C0.58 13.39, -0.32 8.51, 0.41 0.5" stroke="#000000" stroke-width="1" fill="none"></path></g><g stroke-linecap="round"><g transform="translate(60 55) rotate(0 -0.7490355770662518 8.747096243929121)"><path d="M-0.86 -0.45 C-1.03 2.77, -1.08 15.81, -1.29 19.22 M0.89 -1.73 C0.57 1.11, -2.28 13.89, -2.39 17.21" stroke="#000000" stroke-width="1" fill="none"></path></g></g><g stroke-linecap="round"><g transform="translate(75 58) rotate(0 0.37262288450267533 8.089257826665417)"><path d="M0.22 -0.46 C0.37 2.38, 1.56 15.11, 1.87 17.92 M-1.13 -1.74 C-1.22 0.69, 0.44 13.09, 0.85 16.28" stroke="#000000" stroke-width="1" fill="none"></path></g></g><g stroke-linecap="round"><g transform="translate(43 66) rotate(0 23.381478671301124 -1.4230576218850928)"><path d="M-0.94 0.04 C6.74 -0.28, 37.52 -0.87, 45.34 -1.19 M0.77 -0.98 C8.91 -1.71, 40.3 -2.97, 47.7 -2.89" stroke="#000000" stroke-width="1" fill="none"></path></g></g><g transform="translate(55 33) rotate(0 10.5 8.166666666666643)"><text x="10.499999999999979" y="11.333333333333297" font-family="Virgil, Segoe UI Emoji" font-size="12.444444444444422px" fill="#000000" text-anchor="middle" style="white-space: pre;" direction="ltr">123</text></g></svg>